<?xml version="1.0" standalone="no"?>
<!DOCTYPE svg PUBLIC "-//W3C//DTD SVG 20010904//EN"
 "http://www.w3.org/TR/2001/REC-SVG-20010904/DTD/svg10.dtd">
<svg version="1.0" xmlns="http://www.w3.org/2000/svg"
 width="255.000000pt" height="254.000000pt" viewBox="0 0 255.000000 254.000000"
 preserveAspectRatio="xMidYMid meet">
<metadata>
Created by potrace 1.15, written by Peter Selinger 2001-2017
</metadata>
<g transform="translate(0.000000,254.000000) scale(0.100000,-0.100000)"
fill="#000000" stroke="none">
<path d="M894 2469 c-3 -5 -14 -9 -25 -9 -10 0 -27 -4 -37 -9 -9 -5 -30 -14
-47 -21 -90 -38 -206 -105 -290 -170 -59 -45 -208 -205 -251 -270 -98 -146
-155 -283 -203 -493 -14 -60 -14 -319 0 -372 6 -22 16 -74 24 -115 7 -41 18
-88 25 -105 22 -54 28 -69 46 -120 10 -27 28 -67 41 -87 13 -21 23 -42 23 -46
0 -8 30 -50 112 -159 75 -99 315 -295 391 -319 12 -4 25 -12 29 -18 4 -6 11
-11 15 -11 11 0 135 -47 148 -55 6 -4 37 -12 70 -19 33 -7 73 -18 90 -24 49
-18 347 -14 438 6 165 37 386 132 463 199 17 15 36 28 41 28 24 0 209 190 264
271 32 49 59 91 59 94 0 4 7 13 15 21 8 9 18 27 22 42 3 15 11 30 16 33 12 8
2 39 -12 39 -5 0 -11 -14 -13 -32 -3 -30 -27 -54 -25 -26 1 32 -4 45 -18 45
-8 0 -15 -4 -15 -7 0 -11 -58 -33 -69 -26 -5 4 -13 1 -17 -5 -4 -7 -3 -9 3 -6
6 4 13 -1 15 -11 7 -25 -43 -22 -52 3 -6 16 -7 16 -13 3 -3 -9 -22 -22 -41
-29 -20 -7 -36 -17 -36 -21 0 -4 -8 -8 -19 -8 -10 0 -25 -10 -34 -22 -13 -20
-18 -21 -36 -10 -25 15 -77 16 -86 2 -4 -6 7 -13 24 -16 17 -4 31 -11 31 -16
0 -6 -11 -8 -24 -6 -18 4 -26 0 -30 -15 -5 -20 -6 -20 -23 -4 -13 11 -23 13
-33 6 -13 -8 -13 -10 0 -19 11 -7 7 -10 -20 -12 -19 -1 -44 -2 -55 -3 -11 -1
-31 -7 -45 -15 -17 -9 -25 -10 -28 -1 -2 6 -15 11 -28 11 -14 0 -22 -4 -19
-10 9 -15 -24 -25 -38 -11 -13 13 -47 15 -47 2 0 -5 -11 -12 -25 -15 -14 -4
-25 -11 -25 -16 0 -16 37 -12 44 5 3 8 12 12 21 9 22 -9 19 -18 -12 -35 -23
-13 -37 -13 -75 -5 -25 6 -49 13 -52 16 -3 3 45 30 107 59 62 29 119 57 127
62 8 5 22 12 30 15 23 9 120 55 295 139 88 43 177 84 198 92 20 8 37 19 37 24
0 5 12 15 28 22 37 16 62 39 62 55 0 8 6 12 13 9 6 -2 11 -14 10 -26 -4 -29
13 -18 21 14 7 27 59 81 89 90 11 4 17 17 17 39 0 19 7 53 15 76 17 48 20 188
6 253 -5 23 -15 74 -21 112 -13 75 -27 129 -41 157 -5 10 -9 24 -9 32 0 13 -7
28 -58 134 -80 160 -226 339 -342 417 -25 16 -47 33 -50 36 -10 11 -130 90
-130 85 0 -3 -29 10 -63 29 -58 32 -65 33 -83 19 -18 -14 -17 -14 16 -8 31 6
33 5 21 -10 -12 -14 -10 -16 13 -16 14 0 26 -4 26 -9 0 -5 21 -19 48 -32 26
-12 49 -25 52 -29 3 -3 21 -17 40 -30 19 -14 44 -32 54 -42 11 -10 26 -18 33
-18 7 0 13 -4 13 -10 0 -5 7 -10 15 -10 8 0 14 -3 14 -7 -4 -23 3 -35 16 -29
10 3 15 -1 15 -11 0 -9 3 -13 7 -10 11 11 31 -13 26 -31 -2 -11 8 -29 26 -47
17 -17 31 -36 31 -43 0 -7 7 -15 15 -18 8 -4 15 -12 15 -19 0 -8 15 -40 34
-72 19 -32 37 -73 41 -91 4 -18 11 -30 16 -26 5 3 9 -11 9 -30 0 -19 5 -38 10
-41 6 -3 10 -17 10 -31 0 -14 7 -27 15 -30 8 -4 15 -13 15 -21 0 -8 -4 -12 -9
-9 -16 11 -28 -19 -34 -84 -5 -54 -10 -69 -32 -87 -14 -13 -39 -23 -56 -23
-30 0 -32 5 -30 60 1 29 -27 66 -54 71 -12 3 -22 16 -26 37 -4 18 -15 39 -24
46 -10 7 -15 18 -11 25 4 6 0 14 -8 17 -19 7 -21 31 -3 37 16 5 -9 37 -30 37
-7 0 -16 7 -19 15 -4 8 -18 15 -32 15 -14 0 -22 3 -19 7 4 3 -1 12 -11 18 -32
23 -93 55 -103 55 -6 0 -25 10 -42 23 -18 12 -39 23 -47 25 -8 2 -26 14 -41
28 -14 13 -31 24 -38 24 -7 0 -109 48 -227 107 -211 104 -261 120 -287 94 -6
-6 -19 -11 -28 -11 -19 0 -141 -53 -161 -70 -7 -5 -40 -30 -73 -54 -74 -54
-175 -162 -175 -186 0 -24 40 -100 64 -122 29 -27 39 -22 33 17 -5 27 -2 37
13 45 10 5 32 31 49 57 64 100 82 123 143 187 34 37 86 81 115 97 l52 30 58
-25 c56 -23 58 -25 61 -65 2 -23 -6 -78 -17 -124 -12 -45 -24 -111 -27 -147
-4 -36 -11 -74 -17 -84 -5 -11 -18 -96 -29 -190 -10 -94 -20 -182 -22 -196 -3
-25 -5 -25 -87 -24 -52 1 -85 6 -87 13 -3 9 -32 17 -32 9 0 -2 -7 -25 -15 -53
-11 -34 -12 -46 -3 -37 25 25 38 13 39 -35 1 -27 4 -39 6 -28 3 11 13 25 22
32 15 11 14 13 -4 27 -19 14 -16 15 35 16 85 0 85 -1 71 -118 -7 -56 -12 -146
-12 -201 0 -56 -4 -101 -8 -101 -12 0 -21 26 -21 60 0 19 -6 29 -20 33 -15 4
-20 13 -19 34 1 15 -4 53 -11 83 -7 30 -12 65 -11 78 1 15 -3 21 -11 16 -6 -4
-16 0 -23 9 -9 13 -15 8 -38 -35 -25 -46 -26 -52 -11 -62 14 -11 14 -13 0 -25
-9 -8 -16 -20 -16 -28 0 -17 39 -52 58 -53 17 0 15 29 -3 36 -8 4 -15 10 -15
15 0 15 20 10 43 -11 l21 -20 -37 -33 c-20 -17 -37 -40 -37 -49 0 -9 -5 -20
-10 -23 -13 -8 -13 -35 0 -35 6 0 10 9 10 20 0 24 6 25 25 6 18 -17 9 -86 -11
-86 -20 0 -17 -14 6 -35 11 -10 20 -25 20 -34 0 -9 -9 -24 -20 -34 -11 -9 -20
-28 -20 -42 0 -14 -6 -25 -13 -25 -18 0 -37 21 -37 41 0 9 -7 19 -15 23 -20 7
-55 66 -55 91 0 12 3 16 8 9 10 -16 49 -26 56 -15 8 13 -43 39 -66 34 -11 -3
-18 1 -18 10 0 8 -7 20 -15 27 -19 15 -19 29 0 54 11 14 18 17 25 10 8 -8 6
-15 -5 -24 -21 -17 -19 -30 4 -30 11 0 21 -6 24 -12 2 -7 8 -10 12 -6 4 4 2
15 -5 23 -19 23 -19 65 0 75 8 5 11 12 6 17 -5 4 -11 2 -13 -4 -3 -7 -10 -13
-18 -13 -7 0 -18 -7 -25 -15 -7 -8 -21 -15 -32 -15 -11 0 -36 -7 -56 -16 -48
-21 -73 -31 -95 -38 -28 -9 -32 -35 -9 -52 11 -8 23 -27 27 -43 3 -16 13 -32
21 -35 8 -3 14 -15 14 -26 0 -11 7 -20 15 -20 8 0 21 -12 29 -28 15 -28 130
-142 145 -142 4 0 20 -10 35 -23 25 -22 26 -24 9 -39 -40 -34 -60 -39 -105
-23 -24 8 -50 15 -59 15 -20 0 -128 56 -201 103 -68 44 -173 140 -204 186 -13
20 -35 53 -49 73 -14 21 -37 44 -52 52 -16 8 -50 35 -77 60 -27 25 -55 46 -62
46 -19 0 -17 17 2 28 15 8 14 13 -7 41 -12 17 -26 31 -30 31 -14 0 -42 107
-34 126 8 18 8 18 12 1 3 -9 9 -17 14 -17 6 0 6 7 1 18 -5 9 -15 51 -22 93
-10 60 -10 84 0 113 6 20 18 73 25 119 20 116 26 140 42 157 8 8 31 49 52 90
22 44 45 76 55 78 14 3 16 0 7 -17 -6 -12 -16 -30 -21 -41 -6 -12 -6 -20 -1
-20 5 0 34 37 65 83 76 113 177 224 263 286 76 55 214 131 239 131 8 0 22 4
32 9 24 13 84 27 170 42 39 7 72 15 72 18 0 3 -17 17 -37 31 -47 32 -103 89
-103 106 0 7 6 14 12 16 7 3 2 7 -10 10 -12 4 -25 2 -28 -3z"/>
<path d="M612 1685 c-7 -14 -17 -23 -22 -20 -6 3 -10 1 -10 -4 0 -6 5 -11 11
-11 7 0 9 -11 5 -32 -4 -18 -10 -51 -13 -73 -3 -22 -13 -49 -22 -60 -10 -12
-18 -38 -19 -63 0 -25 -10 -58 -22 -77 -23 -38 -21 -40 28 -26 26 8 32 7 32
-5 0 -21 -19 -54 -30 -54 -6 0 -19 -9 -29 -19 -17 -17 -18 -21 -5 -32 8 -6 14
-21 14 -33 0 -20 1 -20 20 4 16 20 22 22 29 11 6 -9 6 -24 0 -38 -6 -15 -5
-31 1 -43 14 -26 12 -57 -5 -83 -8 -12 -13 -41 -12 -65 1 -37 4 -42 25 -42 33
0 82 37 82 61 0 19 10 41 55 128 13 24 16 47 13 85 -6 62 -2 76 23 76 26 0 25
44 -1 70 -19 19 -19 25 -8 118 10 87 9 102 -5 132 -21 41 -22 74 -2 90 13 11
18 10 30 -6 8 -10 15 -14 15 -8 0 20 -23 31 -70 33 -25 1 -57 4 -71 7 -20 4
-28 0 -37 -21z"/>
<path d="M134 1368 c4 -35 9 -98 12 -140 3 -43 10 -78 15 -78 5 0 9 34 9 76
l0 76 98 -3 97 -4 0 35 0 35 -64 3 c-35 2 -77 -1 -92 -7 -34 -12 -59 7 -59 45
0 13 -5 24 -11 24 -7 0 -9 -20 -5 -62z"/>
</g>
</svg>
