<?xml version="1.0" standalone="no"?>
<!DOCTYPE svg PUBLIC "-//W3C//DTD SVG 20010904//EN"
 "http://www.w3.org/TR/2001/REC-SVG-20010904/DTD/svg10.dtd">
<svg version="1.0" xmlns="http://www.w3.org/2000/svg"
 width="254.000000pt" height="254.000000pt" viewBox="0 0 254.000000 254.000000"
 preserveAspectRatio="xMidYMid meet">
<metadata>
Created by potrace 1.15, written by Peter Selinger 2001-2017
</metadata>
<g transform="translate(0.000000,254.000000) scale(0.100000,-0.100000)"
fill="#000000" stroke="none">
<path d="M490 2510 c-135 -49 -236 -125 -307 -230 -88 -131 -140 -339 -130
-525 22 -400 178 -787 455 -1131 106 -131 248 -278 261 -269 6 3 9 0 6 -7 -3
-8 33 -42 86 -83 50 -38 96 -75 102 -80 7 -6 50 -34 97 -63 138 -84 212 -98
321 -62 136 46 404 249 565 426 96 106 194 229 194 244 0 6 5 8 10 5 6 -3 10
-1 10 5 0 6 22 44 49 83 155 231 262 515 302 807 13 87 6 331 -10 375 -6 17
-21 63 -33 104 -47 159 -193 322 -335 375 -21 8 -47 18 -58 22 -64 25 -195 29
-278 9 -39 -9 -76 -21 -82 -25 -5 -4 -21 -11 -35 -15 -35 -11 -117 -67 -167
-115 -47 -43 -54 -57 -24 -40 11 5 29 10 40 10 19 0 21 -6 21 -52 1 -43 3 -50
13 -38 18 22 88 73 93 67 3 -2 -20 -26 -50 -52 l-54 -48 -1 -286 -1 -286 307
2 306 3 -6 -227 c-4 -124 -7 -264 -7 -310 l0 -84 -299 3 -299 3 -6 -44 c-3
-24 -6 -179 -6 -345 l0 -301 -210 3 c-115 2 -210 0 -210 -5 0 -5 13 -20 30
-35 38 -33 40 -55 3 -31 -16 9 -38 26 -51 37 -12 11 -32 21 -44 23 -12 2 -26
9 -30 16 -4 6 -8 164 -8 350 l0 337 -91 0 -90 0 7 -47 c3 -27 10 -52 14 -58 9
-12 26 -91 35 -158 14 -110 37 -188 80 -282 27 -59 37 -107 21 -102 -6 2 -12
16 -14 30 -2 15 -7 27 -12 27 -4 0 -6 -9 -3 -20 3 -11 3 -20 -1 -20 -8 0 -55
40 -75 64 -9 10 -20 23 -26 30 -29 33 -95 127 -118 169 -27 48 -55 93 -70 112
-38 50 -53 73 -77 123 -15 31 -34 74 -41 95 -13 36 -15 37 -61 37 -45 0 -61
-11 -38 -25 6 -3 10 -13 10 -20 0 -22 164 -282 221 -350 87 -106 127 -180 47
-87 -112 129 -238 313 -290 422 -26 53 -27 63 -33 300 -6 254 -6 362 0 368 6
6 587 2 597 -4 4 -3 8 100 8 229 0 129 3 288 6 354 l7 121 30 -9 c17 -5 32 -7
35 -5 15 15 -201 172 -220 160 -4 -3 -8 0 -8 5 0 6 -9 11 -19 11 -11 0 -22 4
-26 9 -7 12 -8 12 -160 17 -102 3 -128 1 -175 -16z m10 -181 c-123 -97 -198
-233 -225 -409 -9 -61 -13 -74 -14 -45 -1 34 -3 37 -12 22 -6 -11 -9 -30 -6
-43 2 -13 0 -24 -4 -24 -18 0 -13 113 7 194 27 106 107 242 126 215 7 -10 8
-8 4 7 -7 23 26 57 84 86 49 24 72 23 40 -3z m226 0 c3 -5 11 -6 19 -2 26 9
17 -83 -15 -177 -20 -58 -30 -104 -30 -146 0 -45 -7 -73 -26 -112 -23 -46 -30
-52 -57 -53 -67 -3 -142 3 -154 12 -7 7 -14 6 -18 -2 -6 -8 -11 -6 -18 7 -10
17 -11 17 -19 -1 -5 -13 -6 1 -3 35 11 109 22 156 52 220 16 36 36 79 44 96 8
18 41 55 74 83 53 45 65 50 103 49 24 -1 45 -5 48 -9z m1144 -21 c0 -9 -6 -21
-13 -25 -23 -15 -34 -57 -30 -113 4 -43 1 -59 -11 -69 -14 -11 -16 -11 -16 4
0 14 -4 13 -20 -8 -11 -14 -20 -36 -20 -49 0 -18 -2 -20 -10 -8 -8 12 -10 11
-10 -7 0 -24 -37 -51 -117 -82 l-53 -21 0 96 0 95 43 52 c79 97 134 142 180
147 68 8 77 7 77 -12z m-1571 -799 c22 -82 59 -229 68 -271 3 -16 9 -28 14
-28 8 0 11 -16 24 -110 6 -42 5 -44 -9 -25 -9 11 -16 32 -16 48 0 15 -3 27 -8
27 -9 0 -47 97 -66 170 -7 30 -24 88 -36 128 -12 40 -20 86 -18 102 2 16 1 27
-4 24 -4 -3 -8 9 -8 27 l0 32 19 -25 c11 -13 28 -58 40 -99z"/>
</g>
</svg>
